# xmcd CD database file
#
# Track frame offsets:
#	150
#	17234
#	34915
#	54402
#	70310
#	86831
#	100340
#	112129
#	139270
#	157245
#	173294
#	190613
#
# Disc length: 2812 seconds
#
# Revision: 0
# Processed by: cddbd v1.5.2PL0 Copyright (c) Steve Scherf et al.
# Submitted via: CDex 1.70beta2
#
DISCID=a50afa0c
DTITLE=Chris Coady - Where You Find It
DYEAR=2008
DGENRE=Country
TTITLE0=Revival Cafe
TTITLE1=Nothing More Dangerous
TTITLE2=Sensation of Flight
TTITLE3=On The Whiskey
TTITLE4=Real Cowboy
TTITLE5='Lo Buddy
TTITLE6=Throw Dirt Over Me
TTITLE7=Into The Light
TTITLE8=Woody's Song
TTITLE9=Keepin' It Simple
TTITLE10=Made In China
TTITLE11=Baby Bye-Bye
EXTD=YEAR: 2008
EXTT0=
EXTT1=
EXTT2=
EXTT3=
EXTT4=
EXTT5=
EXTT6=
EXTT7=
EXTT8=
EXTT9=
EXTT10=
EXTT11=
PLAYORDER=
